HIERARCHY
ROOT Pelvis
{
	OFFSET -0.001795 -0.223333 0.028219
	CHANNELS 6 Xposition Yposition Zposition Zrotation Yrotation Xrotation 
	JOINT Left_hip
	{
		OFFSET 0.069520 -0.091406 -0.006815
		CHANNELS 3 Zrotation Yrotation Xrotation
		JOINT Left_knee
		{
			OFFSET 0.034277 -0.375199 -0.004496
			CHANNELS 3 Zrotation Yrotation Xrotation
			JOINT Left_ankle
			{
				OFFSET -0.013596 -0.397960 -0.043693
				CHANNELS 3 Zrotation Yrotation Xrotation
				JOINT Left_foot
				{
					OFFSET 0.026358 -0.055791 0.119288
					CHANNELS 3 Zrotation Yrotation Xrotation
					End Site
					{
						OFFSET 0.000000 0.000000 0.000000
					}
				}
			}
		}
	}
	JOINT Right_hip
	{
		OFFSET -0.067670 -0.090522 -0.004320
		CHANNELS 3 Zrotation Yrotation Xrotation
		JOINT Right_knee
		{
			OFFSET -0.038290 -0.382569 -0.008850
			CHANNELS 3 Zrotation Yrotation Xrotation
			JOINT Right_ankle
			{
				OFFSET 0.015774 -0.398415 -0.042312
				CHANNELS 3 Zrotation Yrotation Xrotation
				JOINT Right_foot
				{
					OFFSET -0.025372 -0.048144 0.123348
					CHANNELS 3 Zrotation Yrotation Xrotation
					End Site
					{
						OFFSET 0.000000 0.000000 0.000000
					}
				}
			}
		}
	}
	JOINT Spine1
	{
		OFFSET -0.002533 0.108963 -0.026696
		CHANNELS 3 Zrotation Yrotation Xrotation
		JOINT Spine2
		{
			OFFSET 0.005487 0.135180 0.001092
			CHANNELS 3 Zrotation Yrotation Xrotation
			JOINT Spine3
			{
				OFFSET 0.001457 0.052922 0.025425
				CHANNELS 3 Zrotation Yrotation Xrotation
				JOINT Neck
				{
					OFFSET -0.002778 0.213870 -0.042857
					CHANNELS 3 Zrotation Yrotation Xrotation
					JOINT Head
					{
						OFFSET 0.005152 0.064970 0.051349
						CHANNELS 3 Zrotation Yrotation Xrotation
						End Site
						{
							OFFSET 0.000000 0.000000 0.000000
						}
					}
				}
				JOINT Left_collar
				{
					OFFSET 0.078845 0.121749 -0.034090
					CHANNELS 3 Zrotation Yrotation Xrotation
					JOINT Left_shoulder
					{
						OFFSET 0.090977 0.030469 -0.008868
						CHANNELS 3 Zrotation Yrotation Xrotation
						JOINT Left_elbow
						{
							OFFSET 0.259612 -0.012772 -0.027456
							CHANNELS 3 Zrotation Yrotation Xrotation
							JOINT Left_wrist
							{
								OFFSET 0.249234 0.008986 -0.001171
								CHANNELS 3 Zrotation Yrotation Xrotation
								JOINT Left_palm
								{
									OFFSET 0.084042 -0.008162 -0.014945
									CHANNELS 3 Zrotation Yrotation Xrotation
									End Site
									{
										OFFSET 0.000000 0.000000 0.000000
									}
								}
							}
						}
					}
				}
				JOINT Right_collar
				{
					OFFSET -0.081759 0.118833 -0.038615
					CHANNELS 3 Zrotation Yrotation Xrotation
					JOINT Right_shoulder
					{
						OFFSET -0.096012 0.032551 -0.009143
						CHANNELS 3 Zrotation Yrotation Xrotation
						JOINT Right_elbow
						{
							OFFSET -0.253742 -0.013329 -0.021401
							CHANNELS 3 Zrotation Yrotation Xrotation
							JOINT Right_wrist
							{
								OFFSET -0.255298 0.007772 -0.005559
								CHANNELS 3 Zrotation Yrotation Xrotation
								JOINT Right_palm
								{
									OFFSET -0.084622 -0.006117 -0.010315
									CHANNELS 3 Zrotation Yrotation Xrotation
									End Site
									{
										OFFSET 0.000000 0.000000 0.000000
									}
								}
							}
						}
					}
				}
			}
		}
	}
}
MOTION
Frames: 16
Frame Time: 0.016667
-0.300591 0.678846 0.084047 -5.586869 -0.214402 -4.460395 3.995976 -3.314530 -23.483997 -11.619997 -1.276620 54.617679 4.259211 16.858629 -37.083458 0.000000 0.000000 0.000000 -3.052649 0.409891 -22.269007 3.770720 2.931020 53.778120 3.465008 -6.084713 -37.058919 0.000000 0.000000 0.000000 -2.749392 3.636239 24.370927 0.090398 1.035385 -6.521601 -0.969411 0.726146 4.458804 -0.308925 11.678672 -3.986233 -4.243856 -0.378842 9.859651 -18.657343 2.205444 -1.096856 -52.200422 -3.631865 12.265317 -5.538380 -22.322711 24.267022 3.241874 -1.941823 -4.448297 0.000000 0.000000 0.000000 21.574130 1.840441 -1.367978 53.119324 5.791625 17.499225 2.833850 24.877608 18.636480 5.133379 0.563064 -6.858096 0.000000 0.000000 0.000000 
-0.309816 0.661072 0.080740 -4.489504 0.074722 -4.756110 3.610117 -4.775282 -25.902412 -11.150768 0.099090 58.886600 4.290264 17.690521 -38.580045 0.000000 0.000000 0.000000 -3.067470 0.668046 -24.915540 2.784972 2.776640 59.436884 3.258746 -7.211013 -39.037220 0.000000 0.000000 0.000000 -2.395835 4.061346 26.385688 -0.506376 0.499912 -6.945901 -1.803314 0.430450 4.583032 -1.198584 12.053923 -3.573433 -4.627698 -0.376897 9.647323 -19.184895 0.458200 -1.294253 -51.697548 -5.282359 11.574132 -3.872123 -18.768175 23.093791 2.901787 -1.208652 -2.818520 0.000000 0.000000 0.000000 21.606133 2.419328 -1.469067 55.169345 6.532228 16.776239 -0.294342 24.514884 16.066516 4.471494 0.346808 -6.202481 0.000000 0.000000 0.000000 
-0.317710 0.648068 0.079999 -3.546830 -0.329999 -6.493332 2.484317 -4.885663 -25.285990 -10.569257 -0.273828 61.622888 4.291618 18.849180 -40.356732 0.000000 0.000000 0.000000 -2.650308 1.400153 -25.459771 1.680308 3.053033 63.946221 3.238574 -8.395797 -39.865571 0.000000 0.000000 0.000000 -1.719518 3.978813 29.331737 -1.500903 0.661448 -6.769574 -2.450768 0.650122 4.491911 -2.432002 11.693877 -2.587104 -4.808129 0.323459 8.983854 -19.461699 -1.659169 -1.824104 -52.247891 -6.190716 10.299430 -1.207955 -15.968919 22.133397 2.351127 0.646662 -0.063290 0.000000 0.000000 0.000000 20.676115 4.034427 -1.225095 57.076220 6.249035 15.746370 -2.623384 25.176633 13.272614 3.621358 0.022958 -7.119718 0.000000 0.000000 0.000000 
-0.323826 0.640324 0.080909 -2.163101 -1.024613 -9.223095 0.434696 -4.561965 -22.582589 -9.697449 -0.913799 63.257132 3.589207 20.062169 -42.318074 0.000000 0.000000 0.000000 -2.475049 2.359535 -23.690260 0.432633 3.838615 66.454379 2.731574 -9.992727 -40.393471 0.000000 0.000000 0.000000 -1.337401 3.377511 33.591005 -3.655109 0.972873 -7.202769 -2.176777 1.189299 4.033612 -4.899039 10.341011 -2.133508 -3.220160 2.133400 10.144233 -19.638846 -4.292590 -2.675594 -53.476843 -5.485524 8.645862 2.367037 -14.436942 21.544190 0.230724 3.371120 3.463919 0.000000 0.000000 0.000000 18.946089 7.345123 -0.537039 58.001338 4.006491 14.407450 -2.473249 27.706293 11.468421 -0.781923 -0.755228 -10.915288 0.000000 0.000000 0.000000 
-0.331990 0.634632 0.080547 -1.216372 -1.834706 -10.145525 -0.383186 -3.771272 -21.959627 -8.939577 -1.250003 64.670080 3.143686 20.249595 -43.313527 0.000000 0.000000 0.000000 -1.330178 3.681976 -23.229059 -0.470036 5.351075 67.769945 2.561964 -12.109364 -41.311974 0.000000 0.000000 0.000000 -1.672184 2.850964 34.886202 -4.681867 1.585814 -6.832384 -2.126061 1.492409 3.830748 -6.227182 9.540378 -1.501069 -2.898259 3.837333 10.682149 -20.238923 -5.647417 -2.955285 -53.891486 -5.793067 7.970980 4.352760 -13.680497 19.616624 1.928022 5.634409 5.825715 0.000000 0.000000 0.000000 18.017719 9.006506 -0.220796 57.242631 3.163386 14.784537 -1.302504 30.578103 12.362535 0.077266 -0.918633 -13.889899 0.000000 0.000000 0.000000 
-0.340412 0.631749 0.080161 -0.218289 -2.269027 -9.932771 -0.793571 -4.151327 -22.299828 -8.446648 -0.916635 65.139150 2.798372 20.594706 -43.535178 0.000000 0.000000 0.000000 -0.496368 5.353172 -23.393234 -1.206261 6.723525 68.219485 2.908703 -13.900435 -41.934945 0.000000 0.000000 0.000000 -2.424638 2.348566 34.991532 -5.175996 1.869441 -7.058861 -2.183741 1.610856 3.845573 -7.074058 9.264222 -0.824970 -2.969890 5.412048 11.252609 -20.788485 -5.964113 -2.854992 -53.831813 -6.253926 7.904421 4.931346 -13.739340 17.583692 4.046748 6.416410 6.761963 0.000000 0.000000 0.000000 17.365137 9.383659 -0.220403 55.953177 2.719480 15.881081 0.209004 33.671165 14.901364 2.705124 0.073618 -14.826401 0.000000 0.000000 0.000000 
-0.349278 0.631877 0.080470 0.611583 -2.369896 -9.271205 -0.665399 -5.260784 -22.683231 -8.426793 -0.314152 64.549724 2.616259 21.129825 -43.161750 0.000000 0.000000 0.000000 0.124998 7.219569 -23.788287 -1.474445 7.365889 68.272202 3.247554 -15.901822 -41.853230 0.000000 0.000000 0.000000 -3.017257 1.873410 34.455851 -5.388237 1.822742 -7.400772 -2.368808 1.519597 4.047571 -7.675034 9.358299 -0.479408 -3.157919 6.881845 11.923375 -20.934452 -5.672841 -2.584969 -53.602099 -6.589858 8.180624 4.374226 -14.773158 16.264003 5.106749 5.519449 6.109484 0.000000 0.000000 0.000000 16.502880 8.976911 -0.445867 55.031007 2.527337 17.080853 1.407055 36.722247 17.659781 5.290478 1.831406 -13.648380 0.000000 0.000000 0.000000 
-0.358200 0.635778 0.081813 1.281983 -2.198441 -8.678830 -0.466895 -6.256321 -22.400575 -8.582028 -0.220542 62.973441 2.299509 21.443676 -42.452209 0.000000 0.000000 0.000000 0.528945 8.559115 -23.744353 -1.670686 7.349837 67.557107 3.362611 -17.438439 -41.409891 0.000000 0.000000 0.000000 -3.236984 1.441777 33.894464 -5.600408 1.565075 -7.736985 -2.652622 1.262915 4.228689 -8.051226 9.672582 -0.212445 -3.348387 8.019136 12.577136 -20.907232 -5.274906 -2.207943 -53.125187 -6.664324 8.456975 3.319839 -16.557360 15.804955 4.472215 3.300953 4.503209 0.000000 0.000000 0.000000 15.449280 8.223475 -0.739134 54.494656 2.123071 17.892045 2.426647 39.522320 20.127686 6.837743 3.587382 -11.980787 0.000000 0.000000 0.000000 
-0.367098 0.644062 0.084712 1.893683 -2.074774 -8.413130 -0.461850 -6.414863 -21.034104 -8.583468 -0.811038 60.358842 1.879834 21.271996 -41.423894 0.000000 0.000000 0.000000 0.879238 8.913486 -22.706235 -2.104495 7.437780 65.612164 3.317580 -17.905060 -40.735087 0.000000 0.000000 0.000000 -3.199969 1.124642 33.437184 -5.986424 1.278467 -7.855336 -2.949492 0.981629 4.223714 -8.447882 9.957823 0.371056 -3.331835 8.825953 12.839233 -20.875508 -5.095042 -1.701792 -52.448440 -6.361835 8.725229 2.181362 -18.855128 16.356872 3.192518 0.925816 2.722099 0.000000 0.000000 0.000000 14.357895 7.582594 -0.799851 53.878417 1.241144 18.128655 3.823283 42.134521 22.384240 7.088596 4.765871 -11.632882 0.000000 0.000000 0.000000 
-0.376435 0.656632 0.089156 2.286825 -2.148596 -8.484327 -0.361121 -5.545155 -18.553711 -8.545645 -2.080708 56.714165 1.373205 20.668901 -40.097117 0.000000 0.000000 0.000000 1.475581 8.510146 -20.569423 -2.525633 7.798660 62.338826 3.128103 -17.657184 -39.721371 0.000000 0.000000 0.000000 -3.013065 0.891465 32.971794 -6.465699 1.138910 -7.610737 -3.138865 0.826964 3.950681 -9.013231 9.998863 1.381147 -3.069913 9.458410 12.666135 -20.915342 -5.147247 -1.286575 -51.753029 -5.673929 9.121013 1.100335 -21.273572 17.669799 2.540631 -0.455317 1.354388 0.000000 0.000000 0.000000 13.313343 7.230808 -0.525942 52.928186 -0.314831 17.987302 5.849138 44.785364 24.417470 5.688291 4.865063 -12.978197 0.000000 0.000000 0.000000 
-0.386803 0.672727 0.094348 2.398509 -2.381022 -8.433924 0.238046 -4.073337 -15.635184 -8.645375 -3.686768 52.127261 1.006788 19.940104 -38.327783 0.000000 0.000000 0.000000 2.187972 7.756752 -18.221552 -2.400310 8.208505 58.265805 2.776531 -17.388351 -38.153627 0.000000 0.000000 0.000000 -2.785475 0.719021 31.946911 -6.864172 1.185529 -7.073272 -3.282968 0.769982 3.633746 -9.562859 10.012957 2.433101 -2.701704 9.960952 12.653779 -20.864538 -5.010494 -1.002265 -51.186734 -4.795052 9.967011 0.098016 -23.885654 19.931595 2.768568 -0.661085 -0.040076 0.000000 0.000000 0.000000 12.399851 6.845031 -0.021407 51.765885 -2.111828 17.880504 8.202170 47.311200 26.401821 3.626996 4.214995 -15.181116 0.000000 0.000000 0.000000 
-0.397842 0.691533 0.099373 2.348616 -2.730759 -7.881094 1.196798 -2.545608 -12.838313 -8.277487 -4.973770 46.581911 0.698232 18.834006 -35.808591 0.000000 0.000000 0.000000 2.759598 6.781303 -16.294352 -2.111266 8.428776 53.560394 2.340266 -16.617362 -35.919805 0.000000 0.000000 0.000000 -2.689825 0.729541 30.071677 -7.122742 1.349826 -6.361034 -3.241448 0.781790 3.402621 -10.004088 10.095800 3.367514 -2.430387 10.387308 13.019485 -20.489672 -4.437334 -1.392321 -51.644613 -4.557167 10.134064 -0.537887 -24.797538 21.166204 2.886514 -0.894464 0.903377 0.000000 0.000000 0.000000 11.576789 6.020613 0.397557 50.376689 -3.792247 17.528493 10.922064 49.242356 28.979181 3.008607 4.257351 -16.281292 0.000000 0.000000 0.000000 
-0.409427 0.712345 0.103678 2.193920 -3.193939 -6.633646 2.354517 -1.300733 -10.634592 -7.589038 -5.745359 40.396824 0.430728 17.738574 -31.967185 0.000000 0.000000 0.000000 3.203456 5.760879 -14.885813 -1.797582 8.585299 48.075554 1.701609 -15.476521 -32.777646 0.000000 0.000000 0.000000 -2.771520 0.801259 27.207840 -7.232664 1.589360 -5.486859 -3.158471 0.825089 3.253310 -10.351642 10.273437 4.469350 -2.141770 10.922724 13.285225 -20.259131 -3.501271 -1.704752 -52.194695 -4.431132 10.353962 -0.694233 -25.715875 21.884755 3.151512 -0.850738 1.998985 0.000000 0.000000 0.000000 11.020451 4.861604 0.972731 48.827959 -5.023113 17.122156 13.513846 50.701484 31.802051 3.536916 4.687164 -16.775262 0.000000 0.000000 0.000000 
-0.421772 0.735439 0.107932 1.851035 -3.629685 -5.080035 3.557928 -0.670035 -8.700434 -6.462733 -5.947555 33.803913 -0.007535 16.914599 -26.578108 0.000000 0.000000 0.000000 3.732143 4.949062 -13.290216 -1.572989 8.553983 41.531633 1.051935 -14.174359 -28.523716 0.000000 0.000000 0.000000 -2.929246 0.910422 23.962150 -7.188110 1.720088 -4.472992 -3.011453 0.865102 3.040966 -10.661879 10.512211 5.888950 -1.759439 11.628946 13.197544 -20.054037 -2.367968 -1.834708 -52.899728 -4.379777 10.571827 -0.417858 -26.596346 21.440050 3.504560 -0.722437 2.664847 0.000000 0.000000 0.000000 10.551454 3.530139 1.605193 47.501611 -5.945900 16.792283 15.324742 51.830294 33.968569 4.803698 5.076809 -16.768092 0.000000 0.000000 0.000000 
-0.434725 0.760480 0.112156 1.391862 -3.698307 -3.661933 4.422796 -0.827546 -7.310582 -4.720795 -5.897147 28.121001 -0.788011 16.513472 -19.046835 0.000000 0.000000 0.000000 4.405892 4.299709 -11.254124 -1.664499 7.976701 34.368177 0.777592 -12.760073 -22.963984 0.000000 0.000000 0.000000 -3.108768 1.061936 21.185502 -7.073074 1.571867 -3.625601 -2.797395 0.770868 2.760343 -10.973963 10.694859 7.648879 -1.193537 12.458277 12.640137 -19.797371 -1.277677 -1.693924 -53.602317 -4.412867 10.777599 -0.046764 -27.339915 19.939075 4.056357 -0.563777 2.692635 0.000000 0.000000 0.000000 10.071613 2.124984 2.094299 46.685882 -6.767732 16.547316 16.347934 52.432260 34.827303 5.303191 4.996451 -16.548708 0.000000 0.000000 0.000000 
-0.447955 0.786391 0.115810 0.897967 -3.281338 -2.423704 5.171118 -1.967977 -6.631704 -2.953465 -5.097556 23.287852 -1.749002 16.989708 -9.727134 0.000000 0.000000 0.000000 5.008042 4.110011 -9.424441 -1.575404 6.813682 27.831563 0.840954 -11.539608 -15.891479 0.000000 0.000000 0.000000 -3.310761 1.285731 19.013051 -6.878536 1.144471 -2.844073 -2.571342 0.475682 2.328471 -11.306551 10.771996 9.585528 -0.444949 13.209034 11.752680 -19.453922 -0.490916 -1.244086 -54.279168 -4.530058 11.081617 0.460844 -27.913269 17.482237 4.747861 -0.537910 1.954964 0.000000 0.000000 0.000000 9.587003 0.825186 2.447092 46.480924 -7.612708 16.508405 16.297625 52.587358 34.108083 4.835141 4.399362 -16.731751 0.000000 0.000000 0.000000 
